<?xml version="1.0" standalone="no"?>
<!DOCTYPE svg PUBLIC "-//W3C//DTD SVG 20010904//EN"
 "http://www.w3.org/TR/2001/REC-SVG-20010904/DTD/svg10.dtd">
<svg version="1.0" xmlns="http://www.w3.org/2000/svg"
 width="1608.000000pt" height="1608.000000pt" viewBox="0 0 1608.000000 1608.000000"
 preserveAspectRatio="xMidYMid meet">
<metadata>
Created by potrace 1.11, written by Peter Selinger 2001-2013
</metadata>
<g transform="translate(0.000000,1608.000000) scale(0.100000,-0.100000)"
fill="#000000" stroke="none">
<path d="M0 8040 l0 -2640 601 2 601 3 1 2072 0 2073 453 -2 c250 -1 454 -5
454 -10 0 -4 11 -8 25 -8 13 0 37 -5 52 -11 134 -55 191 -93 268 -178 82 -91
124 -176 160 -326 14 -58 13 -212 -1 -288 -44 -233 -198 -422 -404 -497 -57
-21 -138 -37 -197 -39 l-23 -1 0 -566 0 -567 113 7 c61 3 123 8 137 11 123 21
166 29 235 46 44 11 89 24 100 29 11 5 48 18 82 30 291 99 612 339 809 605 41
55 78 105 82 110 9 12 106 188 108 195 0 3 11 28 23 55 27 59 97 267 104 310
3 17 10 55 16 85 21 109 23 138 25 310 1 204 -4 254 -40 425 -18 81 -19 85
-27 105 -3 8 -17 50 -31 93 -28 86 -109 262 -134 290 -8 9 -12 17 -8 17 10 0
-87 141 -155 225 -61 75 -176 194 -227 235 -18 14 -44 35 -59 48 -43 36 -171
121 -232 155 -67 36 -169 87 -176 87 -3 0 -22 7 -43 17 -20 9 -39 17 -42 18
-3 0 -28 9 -56 18 -28 10 -59 20 -70 22 -10 3 -46 11 -79 20 -33 8 -72 17 -87
20 -16 3 -43 8 -60 11 -18 3 -51 9 -73 12 -22 3 -532 7 -1132 9 l-1093 4 0
-2641z"/>
<path d="M5230 10657 c0 -13 -4 -27 -9 -32 -6 -6 -12 -21 -14 -35 -3 -14 -15
-50 -27 -80 -11 -30 -23 -66 -26 -79 -3 -14 -8 -29 -12 -35 -3 -6 -7 -15 -8
-21 -1 -5 -54 -162 -117 -347 -63 -186 -113 -338 -110 -338 3 0 1 -6 -4 -12
-8 -10 -98 -267 -108 -308 -1 -3 -5 -14 -9 -25 -4 -11 -12 -31 -16 -45 -4 -14
-11 -34 -16 -45 -4 -11 -8 -24 -9 -30 -2 -5 -41 -122 -88 -260 -47 -137 -110
-326 -142 -420 -31 -93 -59 -177 -62 -185 -3 -8 -7 -19 -9 -25 -1 -5 -68 -203
-149 -440 -80 -236 -184 -542 -230 -680 -46 -137 -141 -416 -210 -620 -69
-203 -128 -377 -130 -385 -2 -8 -59 -175 -125 -370 -67 -195 -128 -374 -135
-397 l-13 -43 654 0 c650 0 653 0 664 21 6 11 14 30 16 42 3 12 6 27 8 32 1 6
30 96 64 201 34 105 62 196 62 203 0 6 4 19 10 29 9 17 90 272 90 284 0 4 5
19 12 35 7 15 13 33 13 38 1 6 5 17 8 25 3 8 25 76 47 150 23 74 49 149 56
167 8 17 14 36 14 42 0 6 7 32 15 58 40 126 47 149 53 163 3 8 6 17 6 20 1 3
17 52 36 110 18 58 35 110 36 115 1 6 16 54 33 107 18 54 32 100 32 103 0 2
14 44 31 92 16 49 31 93 32 98 2 8 19 66 31 105 1 3 7 18 13 33 7 16 12 32 12
36 0 5 15 55 34 112 48 147 99 311 102 329 2 8 7 23 13 35 8 18 41 117 45 140
2 11 97 308 123 385 8 25 16 52 18 61 2 8 10 32 19 52 8 21 15 38 15 40 -2 5
23 94 31 112 5 11 30 88 56 170 36 115 49 145 55 130 4 -11 29 -87 54 -170 26
-82 50 -159 55 -170 5 -11 12 -31 15 -45 4 -14 26 -86 50 -160 23 -74 62 -196
85 -270 23 -74 47 -148 53 -165 7 -16 12 -32 12 -35 1 -9 56 -182 76 -242 11
-31 22 -65 24 -75 2 -10 9 -31 15 -48 6 -16 13 -37 15 -45 3 -12 50 -167 70
-228 3 -7 5 -14 5 -17 0 -3 6 -22 14 -42 8 -21 35 -105 61 -188 26 -82 67
-211 91 -285 77 -241 94 -295 94 -302 1 -4 7 -23 16 -43 8 -19 12 -35 9 -35
-3 0 -1 -9 5 -20 8 -16 63 -180 84 -255 2 -5 6 -17 9 -25 7 -21 69 -213 72
-225 1 -5 4 -17 7 -25 3 -8 18 -55 33 -105 30 -95 54 -170 63 -195 3 -8 6 -19
7 -25 3 -13 41 -133 65 -205 10 -30 31 -94 46 -142 l28 -88 653 0 c423 0 653
3 653 10 0 5 -34 110 -76 232 -41 123 -82 246 -91 273 -8 28 -20 56 -25 63 -6
6 -8 12 -5 12 2 0 -26 91 -65 203 -38 111 -71 209 -73 217 -2 8 -65 195 -140
415 -75 220 -165 486 -200 590 -106 317 -236 699 -242 715 -4 8 -7 18 -8 23
-2 4 -4 9 -5 12 -1 3 -3 8 -4 13 -2 8 -58 175 -77 232 -17 48 -22 63 -25 75
-1 6 -12 35 -24 65 -12 30 -23 64 -25 75 -4 18 -47 146 -62 185 -3 8 -7 20 -9
25 -1 6 -64 190 -139 410 -75 220 -138 408 -140 417 -2 9 -8 25 -13 35 -6 10
-11 21 -11 25 -2 10 5 -12 -116 348 -59 173 -108 320 -109 325 -2 6 -6 17 -9
25 -3 8 -20 58 -37 110 -17 52 -34 102 -37 110 -4 8 -7 20 -7 25 -1 7 -268 11
-773 13 l-773 2 0 -23z"/>
<path d="M9009 10678 c-1 -2 -2 -1190 -3 -2640 l-1 -2638 600 0 601 0 0 2058
0 2057 146 1 c80 0 153 4 162 7 9 4 15 3 12 -1 -5 -9 185 -8 208 1 10 4 15 3
12 -1 -4 -6 273 -8 299 -2 6 1 12 2 15 1 3 -2 50 -4 105 -6 108 -3 183 -11
254 -26 25 -5 56 -11 67 -13 47 -8 212 -70 286 -106 121 -61 225 -136 318
-230 47 -47 93 -96 103 -108 71 -90 159 -246 196 -347 12 -33 24 -67 28 -75 3
-8 7 -20 9 -27 1 -6 7 -27 13 -45 6 -18 12 -44 15 -58 3 -14 10 -50 16 -80 37
-174 44 -492 15 -640 -3 -14 -10 -52 -16 -85 -34 -190 -111 -382 -212 -534
-63 -93 -83 -118 -178 -211 -182 -180 -386 -281 -694 -346 -35 -7 -118 -15
-195 -19 -41 -2 -77 -4 -80 -4 -4 -1 -4 -1081 -1 -1149 1 -11 25 -13 124 -8
67 3 133 8 147 10 14 2 52 8 85 11 68 9 88 12 130 20 58 11 70 14 95 20 14 3
36 8 50 11 14 2 32 7 40 10 8 3 52 16 96 29 147 43 377 143 494 214 19 11 42
24 50 28 8 3 29 17 46 30 17 13 34 23 38 23 6 0 68 43 111 78 6 4 28 21 50 37
131 98 310 275 410 405 22 29 45 57 50 64 26 27 107 148 156 231 43 73 138
254 144 275 1 3 7 19 14 35 7 17 24 59 37 95 14 36 28 74 33 85 9 19 40 122
45 147 2 7 6 20 9 28 5 13 23 88 31 131 2 8 6 32 11 54 4 22 9 49 12 60 2 11
6 38 9 60 3 22 7 51 10 65 26 164 26 587 0 763 -3 20 -8 52 -11 70 -7 49 -15
89 -21 117 -3 14 -8 36 -10 50 -3 14 -8 34 -11 45 -3 11 -7 29 -9 40 -2 11
-12 52 -24 90 -12 39 -23 75 -24 80 -2 6 -5 17 -8 25 -3 8 -16 44 -29 80 -12
36 -25 70 -29 75 -4 6 -14 31 -24 57 -20 54 -120 250 -147 290 -11 14 -19 29
-19 32 0 7 -99 158 -109 166 -4 3 -15 18 -24 33 -36 56 -192 233 -271 307 -32
30 -70 66 -85 80 -14 14 -42 37 -63 52 -20 15 -42 34 -50 41 -20 20 -164 119
-243 167 -115 70 -387 199 -450 214 -5 1 -48 15 -95 30 -83 27 -119 37 -150
40 -9 1 -20 5 -25 8 -6 3 -30 9 -55 13 -25 4 -54 9 -65 11 -11 3 -36 7 -55 10
-19 3 -48 8 -65 11 -16 2 -43 7 -60 10 -31 5 -2394 16 -2396 11z"/>
<path d="M14338 10673 c-7 -15 -2 -1142 5 -1149 8 -9 260 -9 274 -1 6 4 13 4
16 0 10 -9 352 -7 367 2 7 5 11 4 8 -1 -7 -10 180 -11 206 -1 10 4 15 3 12 -1
-5 -8 337 -7 351 1 6 4 13 4 16 0 10 -9 352 -7 367 2 7 5 11 4 8 -1 -4 -5 16
-9 43 -9 l49 0 0 583 0 582 -859 0 c-473 0 -861 -3 -863 -7z"/>
<path d="M14342 8635 c-4 -5 -7 -261 -7 -569 0 -515 1 -559 17 -565 13 -4
1187 -6 1256 -2 10 1 12 119 10 573 l-3 573 -633 0 c-412 0 -636 -4 -640 -10z"/>
<path d="M14342 6560 c-4 -3 -7 -265 -7 -582 l0 -578 862 0 863 0 0 580 c0
319 -3 580 -7 581 -53 5 -272 3 -285 -3 -9 -5 -19 -5 -21 -1 -5 7 -196 9 -222
3 -5 -1 -12 -2 -15 0 -12 4 -1163 5 -1168 0z"/>
</g>
</svg>
