<svg width="19" height="16" viewBox="0 0 19 16" fill="none" xmlns="http://www.w3.org/2000/svg">
<path d="M9.03576 1H4.09068C2.38375 1 1 1.87944 1 2.96429V8.10415V12.7857C1 13.8705 2.38375 14.75 4.09068 14.75H9.03576" stroke="#3D3A3A" stroke-width="2" stroke-linecap="round" stroke-linejoin="round"/>
<path d="M18.7186 8.19567C18.995 8.01857 18.995 7.73147 18.7186 7.55437L14.2126 4.66856C13.936 4.49146 13.4877 4.49146 13.2112 4.66856C12.9347 4.84562 12.9347 5.13276 13.2112 5.30986L17.2166 7.87502L13.2112 10.4402C12.9347 10.6173 12.9347 10.9044 13.2112 11.0815C13.4877 11.2586 13.936 11.2586 14.2126 11.0815L18.7186 8.19567ZM5.94507 8.3285H18.2179V7.42155H5.94507V8.3285Z" fill="#3D3A3A"/>
</svg>
