<svg width="402" height="132" viewBox="0 0 402 132" fill="none" xmlns="http://www.w3.org/2000/svg">
<path d="M49.7471 0H0V132H30.036V90.5143V62.2286H49.7471V90.5143C75.6531 90.5143 95.7397 70.3371 95.7397 45.2571C95.7397 20.1771 75.6531 0 49.7471 0ZM49.7471 62.2286H30.036V28.2857H49.7471C58.9456 28.2857 65.7037 35.64 65.7037 45.2571C65.7037 54.8743 58.9456 62.2286 49.7471 62.2286ZM181.067 132H213.919L169.24 0H130.944L108.605 66L86.2654 132H119.117L125.688 111.257L165.486 82.9714L174.496 111.257L181.067 132ZM134.699 82.9714L150.092 34.5086L165.486 82.9714L125.688 111.257L134.699 82.9714ZM277.687 0H225.124V132H277.687C313.918 132 341.513 103.337 341.513 66C341.513 28.6629 313.918 0 277.687 0ZM277.687 102.96V132H255.16V102.96V29.04H277.687C298.336 29.04 312.603 43.3714 312.603 66C312.603 88.6286 298.336 102.96 277.687 102.96ZM358.401 102.96V79.5771H390.5V50.9143H358.401V29.04H401.5V0H358.401V132H401.5V102.96H358.401Z" fill="#3D3A3A"/>
</svg>
