<svg width="164" height="95" viewBox="0 0 164 95" fill="none" xmlns="http://www.w3.org/2000/svg">
<path d="M16.4106 94.7646H18.0575L10.0875 74.1778H8.44057L0.441124 94.7646H2.08807L4.08793 89.5297H14.4107L16.4106 94.7646ZM4.67612 88.0592L9.26404 76.0895L13.852 88.0592H4.67612ZM28.7894 74.1778H21.0546V94.7646H28.7894C34.4654 94.7646 38.4946 90.1473 38.4946 84.4712C38.4946 78.7951 34.4654 74.1778 28.7894 74.1778ZM28.7894 93.2941H22.6133V75.6483H28.7894C33.642 75.6483 36.9653 79.5892 36.9653 84.4712C36.9653 89.3532 33.642 93.2941 28.7894 93.2941ZM61.039 74.1778H59.0686L51.7161 86.3534L44.3637 74.1778H42.4227V94.7646H43.9814V76.4718L51.5985 89.118H51.8632L59.4803 76.4718V94.7646H61.039V74.1778ZM66.1457 74.1778V94.7646H67.7044V74.1778H66.1457ZM86.3371 74.1778V91.8825L74.1615 74.1778H72.8086V94.7646H74.3673V77.06L86.5135 94.7646H87.8958V74.1778H86.3371Z" fill="#9E0E0E"/>
<path d="M20.3201 0H0V53.9178H12.2688V36.9722V25.4184H20.3201V36.9722C30.9019 36.9722 39.1066 28.7305 39.1066 18.4861C39.1066 8.2417 30.9019 0 20.3201 0ZM20.3201 25.4184H12.2688V11.5538H20.3201C24.0774 11.5538 26.8379 14.5578 26.8379 18.4861C26.8379 22.4144 24.0774 25.4184 20.3201 25.4184ZM73.9601 53.9178H87.3791L69.1292 0H53.4865L35.2367 53.9178H48.6555L51.3396 45.445L67.5958 33.8912L71.2761 45.445L73.9601 53.9178ZM55.0203 33.8912L61.3078 14.0957L67.5958 33.8912L51.3396 45.445L55.0203 33.8912ZM113.426 0H91.956V53.9178H113.426C128.226 53.9178 139.497 42.2099 139.497 26.9589C139.497 11.7079 128.226 0 113.426 0ZM113.426 42.0559V53.9178H104.225V42.0559V11.8619H113.426C121.861 11.8619 127.688 17.7158 127.688 26.9589C127.688 36.202 121.861 42.0559 113.426 42.0559ZM146.395 42.0559V32.5047H159.507V20.7969H146.395V11.8619H164V0H146.395V53.9178H164V42.0559H146.395Z" fill="#9E0E0E"/>
</svg>
