<svg width="865" height="235" viewBox="0 0 865 235" fill="none" xmlns="http://www.w3.org/2000/svg">
<path d="M23.4 181.6H6.264V232H10.08V212.776H23.4C32.472 212.776 39.096 206.08 39.096 197.224C39.096 188.296 32.472 181.6 23.4 181.6ZM23.4 209.176H10.08V185.2H23.4C30.312 185.2 35.28 190.24 35.28 197.224C35.28 204.136 30.312 209.176 23.4 209.176ZM71.2823 232.792C85.8263 232.792 97.2743 221.2 97.2743 206.8C97.2743 192.4 85.8263 180.808 71.2823 180.808C56.7383 180.808 45.2903 192.4 45.2903 206.8C45.2903 221.2 56.7383 232.792 71.2823 232.792ZM71.2823 229.12C58.8263 229.12 49.1063 219.184 49.1063 206.8C49.1063 194.416 58.8263 184.48 71.2823 184.48C83.7383 184.48 93.4583 194.416 93.4583 206.8C93.4583 219.184 83.7383 229.12 71.2823 229.12ZM138.776 232H143.168L130.64 210.832C137.047 209.104 141.728 203.344 141.728 196.504C141.728 188.296 135.032 181.6 126.824 181.6H106.952V232H110.768V211.336H126.68L138.776 232ZM110.768 185.2H126.824C132.944 185.2 137.912 190.24 137.912 196.504C137.912 202.696 132.944 207.736 126.824 207.736H110.768V185.2ZM181.013 181.6H145.445V185.2H161.285V232H165.173V185.2H181.013V181.6ZM219.262 232H223.294L203.782 181.6H199.75L180.166 232H184.198L189.094 219.184H214.366L219.262 232ZM190.534 215.584L201.766 186.28L212.998 215.584H190.534ZM234.447 228.4V181.6H230.631V232H258.207V228.4H234.447ZM285.334 181.6V232H289.15V181.6H285.334ZM334.767 181.6V224.944L304.959 181.6H301.647V232H305.463V188.656L335.199 232H338.583V181.6H334.767ZM379.013 185.2V181.6H351.077V232H354.893V208.96H378.149V205.36H354.893V185.2H379.013ZM411.454 232.792C425.998 232.792 437.446 221.2 437.446 206.8C437.446 192.4 425.998 180.808 411.454 180.808C396.91 180.808 385.462 192.4 385.462 206.8C385.462 221.2 396.91 232.792 411.454 232.792ZM411.454 229.12C398.998 229.12 389.278 219.184 389.278 206.8C389.278 194.416 398.998 184.48 411.454 184.48C423.91 184.48 433.63 194.416 433.63 206.8C433.63 219.184 423.91 229.12 411.454 229.12ZM478.947 232H483.339L470.811 210.832C477.219 209.104 481.899 203.344 481.899 196.504C481.899 188.296 475.203 181.6 466.995 181.6H447.123V232H450.939V211.336H466.851L478.947 232ZM450.939 185.2H466.995C473.115 185.2 478.083 190.24 478.083 196.504C478.083 202.696 473.115 207.736 466.995 207.736H450.939V185.2ZM536.856 181.6H532.032L514.032 211.408L496.032 181.6H491.28V232H495.096V187.216L513.744 218.176H514.392L533.04 187.216V232H536.856V181.6ZM583.27 232H587.302L567.79 181.6H563.758L544.174 232H548.206L553.102 219.184H578.374L583.27 232ZM554.542 215.584L565.774 186.28L577.006 215.584H554.542ZM608.641 232.792C618.649 232.792 625.201 227.32 625.201 218.968C625.201 210.256 617.425 207.448 608.497 204.496C601.297 202.12 596.185 200.248 596.185 194.2C596.185 188.584 600.577 184.48 607.561 184.48C614.761 184.48 618.649 188.656 620.521 193.192L623.761 191.392C621.313 185.56 615.841 180.808 607.561 180.808C598.993 180.808 592.297 186.064 592.297 194.344C592.297 203.128 599.857 205.504 608.281 208.24C615.985 210.688 621.313 212.992 621.313 219.04C621.313 224.8 617.065 229.12 608.641 229.12C600.361 229.12 595.249 225.016 593.521 218.968L590.209 220.912C592.513 228.04 599.209 232.792 608.641 232.792ZM634.225 181.6V232H638.041V181.6H634.225ZM688.669 181.6H669.733V232H688.669C702.565 232 712.429 220.696 712.429 206.8C712.429 192.904 702.565 181.6 688.669 181.6ZM688.669 228.4H673.549V185.2H688.669C700.549 185.2 708.685 194.848 708.685 206.8C708.685 218.752 700.549 228.4 688.669 228.4ZM725.861 228.4V208.384H748.901V204.784H725.861V185.2H750.701V181.6H722.045V232H751.061V228.4H725.861ZM775.844 232.792C785.852 232.792 792.404 227.32 792.404 218.968C792.404 210.256 784.628 207.448 775.7 204.496C768.5 202.12 763.388 200.248 763.388 194.2C763.388 188.584 767.78 184.48 774.764 184.48C781.964 184.48 785.852 188.656 787.724 193.192L790.964 191.392C788.516 185.56 783.044 180.808 774.764 180.808C766.196 180.808 759.5 186.064 759.5 194.344C759.5 203.128 767.06 205.504 775.484 208.24C783.188 210.688 788.516 212.992 788.516 219.04C788.516 224.8 784.268 229.12 775.844 229.12C767.564 229.12 762.452 225.016 760.724 218.968L757.412 220.912C759.716 228.04 766.412 232.792 775.844 232.792ZM834.989 232H839.021L819.509 181.6H815.477L795.893 232H799.925L804.821 219.184H830.093L834.989 232ZM806.261 215.584L817.493 186.28L828.725 215.584H806.261Z" fill="#3D3A3A"/>
<path d="M49.7471 0H0V132H30.036V90.5143V62.2286H49.7471V90.5143C75.6531 90.5143 95.7397 70.3371 95.7397 45.2571C95.7397 20.1771 75.6531 0 49.7471 0ZM49.7471 62.2286H30.036V28.2857H49.7471C58.9456 28.2857 65.7037 35.64 65.7037 45.2571C65.7037 54.8743 58.9456 62.2286 49.7471 62.2286ZM181.067 132H213.919L169.24 0H130.944L108.605 66L86.2654 132H119.117L125.688 111.257L165.486 82.9714L174.496 111.257L181.067 132ZM134.699 82.9714L150.092 34.5086L165.486 82.9714L125.688 111.257L134.699 82.9714ZM277.687 0H225.124V132H277.687C313.918 132 341.513 103.337 341.513 66C341.513 28.6629 313.918 0 277.687 0ZM277.687 102.96V132H255.16V102.96V29.04H277.687C298.336 29.04 312.603 43.3714 312.603 66C312.603 88.6286 298.336 102.96 277.687 102.96ZM358.401 102.96V79.5771H390.5V50.9143H358.401V29.04H401.5V0H358.401V132H401.5V102.96H358.401Z" fill="#3D3A3A"/>
</svg>
