<svg width="1127" height="306" viewBox="0 0 1127 306" fill="none" xmlns="http://www.w3.org/2000/svg">
<path d="M166.523 231.753H149.387V282.153H153.203V262.929H166.523C175.595 262.929 182.219 256.233 182.219 247.377C182.219 238.449 175.595 231.753 166.523 231.753ZM166.523 259.329H153.203V235.353H166.523C173.435 235.353 178.403 240.393 178.403 247.377C178.403 254.289 173.435 259.329 166.523 259.329ZM214.406 282.945C228.95 282.945 240.398 271.353 240.398 256.953C240.398 242.553 228.95 230.961 214.406 230.961C199.862 230.961 188.414 242.553 188.414 256.953C188.414 271.353 199.862 282.945 214.406 282.945ZM214.406 279.273C201.95 279.273 192.23 269.337 192.23 256.953C192.23 244.569 201.95 234.633 214.406 234.633C226.862 234.633 236.582 244.569 236.582 256.953C236.582 269.337 226.862 279.273 214.406 279.273ZM281.899 282.153H286.291L273.763 260.985C280.171 259.257 284.851 253.497 284.851 246.657C284.851 238.449 278.155 231.753 269.947 231.753H250.075V282.153H253.891V261.489H269.803L281.899 282.153ZM253.891 235.353H269.947C276.067 235.353 281.035 240.393 281.035 246.657C281.035 252.849 276.067 257.889 269.947 257.889H253.891V235.353ZM324.136 231.753H288.568V235.353H304.408V282.153H308.296V235.353H324.136V231.753ZM362.385 282.153H366.417L346.905 231.753H342.873L323.289 282.153H327.321L332.217 269.337H357.489L362.385 282.153ZM333.657 265.737L344.889 236.433L356.121 265.737H333.657ZM377.571 278.553V231.753H373.755V282.153H401.331V278.553H377.571ZM428.458 231.753V282.153H432.274V231.753H428.458ZM477.89 231.753V275.097L448.082 231.753H444.77V282.153H448.586V238.809L478.322 282.153H481.706V231.753H477.89ZM522.136 235.353V231.753H494.2V282.153H498.016V259.113H521.272V255.513H498.016V235.353H522.136ZM554.577 282.945C569.121 282.945 580.569 271.353 580.569 256.953C580.569 242.553 569.121 230.961 554.577 230.961C540.033 230.961 528.585 242.553 528.585 256.953C528.585 271.353 540.033 282.945 554.577 282.945ZM554.577 279.273C542.121 279.273 532.401 269.337 532.401 256.953C532.401 244.569 542.121 234.633 554.577 234.633C567.033 234.633 576.753 244.569 576.753 256.953C576.753 269.337 567.033 279.273 554.577 279.273ZM622.071 282.153H626.463L613.935 260.985C620.343 259.257 625.023 253.497 625.023 246.657C625.023 238.449 618.327 231.753 610.119 231.753H590.247V282.153H594.063V261.489H609.975L622.071 282.153ZM594.063 235.353H610.119C616.239 235.353 621.207 240.393 621.207 246.657C621.207 252.849 616.239 257.889 610.119 257.889H594.063V235.353ZM679.979 231.753H675.155L657.155 261.561L639.155 231.753H634.403V282.153H638.219V237.369L656.867 268.329H657.515L676.163 237.369V282.153H679.979V231.753ZM726.393 282.153H730.425L710.913 231.753H706.881L687.297 282.153H691.329L696.225 269.337H721.497L726.393 282.153ZM697.665 265.737L708.897 236.433L720.129 265.737H697.665ZM751.764 282.945C761.772 282.945 768.324 277.473 768.324 269.121C768.324 260.409 760.548 257.601 751.62 254.649C744.42 252.273 739.308 250.401 739.308 244.353C739.308 238.737 743.7 234.633 750.684 234.633C757.884 234.633 761.772 238.809 763.644 243.345L766.884 241.545C764.436 235.713 758.964 230.961 750.684 230.961C742.116 230.961 735.42 236.217 735.42 244.497C735.42 253.281 742.98 255.657 751.404 258.393C759.108 260.841 764.436 263.145 764.436 269.193C764.436 274.953 760.188 279.273 751.764 279.273C743.484 279.273 738.372 275.169 736.644 269.121L733.332 271.065C735.636 278.193 742.332 282.945 751.764 282.945ZM777.348 231.753V282.153H781.164V231.753H777.348ZM831.792 231.753H812.856V282.153H831.792C845.688 282.153 855.552 270.849 855.552 256.953C855.552 243.057 845.688 231.753 831.792 231.753ZM831.792 278.553H816.672V235.353H831.792C843.672 235.353 851.808 245.001 851.808 256.953C851.808 268.905 843.672 278.553 831.792 278.553ZM868.985 278.553V258.537H892.025V254.937H868.985V235.353H893.825V231.753H865.169V282.153H894.185V278.553H868.985ZM918.967 282.945C928.975 282.945 935.527 277.473 935.527 269.121C935.527 260.409 927.751 257.601 918.823 254.649C911.623 252.273 906.511 250.401 906.511 244.353C906.511 238.737 910.903 234.633 917.887 234.633C925.087 234.633 928.975 238.809 930.847 243.345L934.087 241.545C931.639 235.713 926.167 230.961 917.887 230.961C909.319 230.961 902.623 236.217 902.623 244.497C902.623 253.281 910.183 255.657 918.607 258.393C926.311 260.841 931.639 263.145 931.639 269.193C931.639 274.953 927.391 279.273 918.967 279.273C910.687 279.273 905.575 275.169 903.847 269.121L900.535 271.065C902.839 278.193 909.535 282.945 918.967 282.945ZM978.112 282.153H982.144L962.632 231.753H958.6L939.016 282.153H943.048L947.944 269.337H973.216L978.112 282.153ZM949.384 265.737L960.616 236.433L971.848 265.737H949.384Z" fill="#3D3A3A"/>
<path d="M366.871 0H302.094V171.881H341.204V117.861V81.0295H366.871V117.861C400.604 117.861 426.759 91.5879 426.759 58.9306C426.759 26.2732 400.604 0 366.871 0ZM366.871 81.0295H341.204V36.8316H366.871C378.848 36.8316 387.648 46.4078 387.648 58.9306C387.648 71.4533 378.848 81.0295 366.871 81.0295ZM537.866 171.881H580.643L522.466 0H472.6L443.511 85.9404L414.422 171.881H457.2L465.755 144.871L517.577 108.039L529.31 144.871L537.866 171.881ZM477.489 108.039L497.533 44.9346L517.577 108.039L465.755 144.871L477.489 108.039ZM663.677 0H595.234V171.881H663.677C710.854 171.881 746.787 134.558 746.787 85.9404C746.787 37.3227 710.854 0 663.677 0ZM663.677 134.067V171.881H634.344V134.067V37.8138H663.677C690.566 37.8138 709.143 56.4751 709.143 85.9404C709.143 115.406 690.566 134.067 663.677 134.067ZM768.778 134.067V103.62H810.575V66.2969H768.778V37.8138H824.898V0H768.778V171.881H824.898V134.067H768.778Z" fill="#3D3A3A"/>
</svg>
